# xmcd
#
# Track frame offsets:
#	150
#	18838
#	38587
#	57003
#
# Disc length: 1045
#
# Revision: 1
# Processed by: cddbd v1.5.1PL0 Copyright (c) Steve Scherf et al.
# Submitted via: dBpowerAMP V4.0
# Normalized: r0:TRMNUM
#
DISCID=21041304
DTITLE=Saraus - Vale do Aço - Tonight - EP
DYEAR=1995
DGENRE=Blues
TTITLE0=Tonight (Hohe à Noite)
TTITLE1=Falando de Democracia
TTITLE2=Solidariedade
TTITLE3=Cavalo da Sorte
EXTD=banda de blues de minas gerais(vale do aço) com um futuro promissor. vamos prestigiar e espalhar pela internet
EXTT0=
EXTT1=
EXTT2=
EXTT3=
PLAYORDER=
